<?xml version="1.0" standalone="no"?><!DOCTYPE svg PUBLIC "-//W3C//DTD SVG 1.1//EN" "http://www.w3.org/Graphics/SVG/1.1/DTD/svg11.dtd"><svg t="1778719401787" class="icon" viewBox="0 0 1024 1024" version="1.1" xmlns="http://www.w3.org/2000/svg" p-id="9333" xmlns:xlink="http://www.w3.org/1999/xlink" width="200" height="200"><path d="M404.906935 471.06782A61.822209 61.822209 0 0 0 348.744505 535.937603a61.822209 61.822209 0 0 0 57.9039 65.305151 61.822209 61.822209 0 0 0 58.339268-65.305151 61.386842 61.386842 0 0 0-60.080738-64.869783zM619.543196 471.06782a61.822209 61.822209 0 0 0-57.9039 64.869783 61.822209 61.822209 0 0 0 57.9039 65.305151 61.822209 61.822209 0 0 0 58.339268-65.305151 61.386842 61.386842 0 0 0-58.339268-64.869783z" fill="#ffffff" p-id="9334"></path><path d="M512.007382 0a511.992381 511.992381 0 1 0 511.992381 511.557013A511.557013 511.557013 0 0 0 512.007382 0z m320.430606 674.384522a531.583926 531.583926 0 0 1-161.521406 81.413755h-2.176839a421.435906 421.435906 0 0 1-33.087943-53.550224v-2.612206a354.389284 354.389284 0 0 0 50.067282-24.380589v-3.047574a91.862579 91.862579 0 0 1-10.013456-8.271986 381.817447 381.817447 0 0 1-324.784283 0l-10.013456 7.836618v3.047574a337.845313 337.845313 0 0 0 50.50265 24.38059v2.612206a377.028403 377.028403 0 0 1-33.087943 53.550223h-2.176838a534.6315 534.6315 0 0 1-161.086039-81.413754 545.080324 545.080324 0 0 1 92.297947-367.014947 556.399884 556.399884 0 0 1 130.610301-40.924561 341.763622 341.763622 0 0 1 16.543971 33.523311 493.271571 493.271571 0 0 1 147.589641 0 341.763622 341.763622 0 0 1 16.543971-33.523311 2.176838 2.176838 0 0 1 2.176839 0 556.399884 556.399884 0 0 1 130.610301 40.924561 541.597383 541.597383 0 0 1 101.0053 367.450314z" fill="#ffffff" p-id="9335"></path></svg>