<?xml version="1.0" encoding="UTF-8"?>
<svg version="1.1" xmlns="http://www.w3.org/2000/svg" width="2633" height="1887">
<path d="M0 0 C3.76734947 0.00022991 7.5346918 -0.00524989 11.30203782 -0.00989823 C18.71141113 -0.01808108 26.12077668 -0.0207589 33.53015411 -0.02139034 C39.63260315 -0.02199199 45.73504855 -0.02457819 51.83749638 -0.02842717 C75.36068558 -0.04305026 98.8838615 -0.0458366 122.4070546 -0.04291697 C129.25208483 -0.04212833 136.09711472 -0.04215642 142.94214498 -0.0426331 C236.63551806 -0.04876775 330.3261959 -0.00581838 433.76667033 1.04932733 C436.96992168 1.08283523 440.17317696 1.11594592 443.376433 1.14900203 C456.25987929 1.28257213 469.14320513 1.42473785 482.02642594 1.57855935 C483.76274001 1.59926714 485.49905599 1.61981511 487.23537408 1.64018293 C506.13016889 1.8620546 525.02111669 2.17825046 543.91211949 2.62025066 C545.17783487 2.64877205 545.17783487 2.64877205 546.46912025 2.67786963 C599.40936237 3.88536377 599.40936237 3.88536377 605.5383402 9.20789714 C606.3427152 10.16695964 606.3427152 10.16695964 607.1633402 11.14539714 C610.79037046 12.35440723 614.40351382 12.93200189 618.1633402 12.14539714 C618.79111363 11.50344402 619.41888707 10.86149089 620.06568395 10.20008464 C630.19023175 0.28292981 664.3441334 4.98179594 677.61255895 4.97742839 C679.95963046 4.9742008 682.3067018 4.97083571 684.65377294 4.96734233 C689.56118223 4.96138869 694.46857403 4.95949815 699.37598668 4.96009441 C704.32166238 4.96017508 709.2672443 4.95332202 714.21290074 4.93958659 C737.92504069 4.87480112 761.62087342 4.81240805 785.30787145 6.03211589 C786.08595347 6.07106283 786.8640355 6.11000976 787.66569577 6.1501369 C815.00065061 7.56721091 815.00065061 7.56721091 820.1633402 12.14539714 C822.63134066 10.99366359 824.21117585 10.09756149 826.1633402 8.14539714 C834.51938024 6.47637087 843.14151807 6.0152334 851.6399027 5.61805339 C852.51151036 5.57623943 853.38311803 5.53442546 854.28113805 5.49134441 C884.08394452 4.1051044 913.94992834 3.99999068 943.77881871 3.64881511 C944.68854824 3.63804198 945.59827777 3.62726885 946.53557485 3.61616926 C986.37024246 3.14506601 1026.2048076 2.82024312 1066.04163958 2.6057135 C1068.86446427 2.59044581 1071.68728734 2.57490307 1074.51011024 2.55930944 C1160.40769197 2.08683613 1246.30552927 2.02375414 1438.32395473 2.01593529 C1463.11766746 2.02050684 1487.91137559 2.01959755 1512.70508824 2.01502605 C1542.00169203 2.00964128 1571.29829311 2.00755941 1600.59489731 2.01063831 C1603.72477172 2.01095876 1606.85464613 2.01127161 1609.98452054 2.01158138 C1610.75427249 2.01166045 1611.52402444 2.01173953 1612.3171022 2.011821 C1623.74254435 2.01294004 1635.16798447 2.01166495 1646.59342633 2.00910182 C1659.53412817 2.00621184 1672.47482434 2.00702462 1685.41552549 2.01238257 C1691.96751924 2.01500843 1698.51950521 2.01612341 1705.07149945 2.01273341 C1731.59949794 2.00021284 1758.11821004 2.13456328 1784.64269505 2.5909843 C1785.80508966 2.6104034 1786.96748427 2.62982249 1788.16510295 2.64983004 C1800.3770348 2.85884764 1812.58150424 3.15775224 1824.78609048 3.63576694 C1825.80465915 3.67533714 1826.82322781 3.71490735 1827.8726622 3.75567665 C1836.06050819 4.09588484 1844.17279693 4.76938169 1852.3195902 5.66883464 C1853.72929851 5.81793492 1855.13909166 5.966235 1856.54896031 6.11381145 C1860.19295408 6.49699712 1863.83591182 6.8891872 1867.47864781 7.28413005 C1873.24852766 7.90812304 1879.0199203 8.51805915 1884.79126798 9.12830158 C1886.22350906 9.27997341 1887.65569563 9.43216092 1889.08782636 9.58487125 C1897.14161123 10.4431414 1905.19692369 11.25626301 1913.26465856 11.97278972 C1914.00990348 12.03910846 1914.7551484 12.1054272 1915.5229765 12.1737556 C1919.07094095 12.48785217 1922.61932868 12.79524255 1926.16871129 13.09287639 C1959.36509421 15.96992074 1959.36509421 15.96992074 1970.44068395 26.08680339 C1995.18809395 55.66023893 1990.98089673 114.69300904 1993.64380895 151.04383464 C1993.7087077 151.9282423 1993.77360646 152.81264995 1993.84047185 153.72385783 C1994.50025087 162.7224787 1995.15362253 171.72148463 1995.78615056 180.72206493 C1997.38624475 203.66259198 1997.38624475 203.66259198 1999.65943395 226.54383464 C1999.76602834 227.50987621 1999.87262273 228.47591777 1999.98244725 229.47123332 C2001.16947966 239.56263598 2001.16947966 239.56263598 2006.01880895 248.18836589 C2013.45748813 251.50799503 2024.31874895 248.88943201 2032.2258402 248.14539714 C2073.31127216 244.31812341 2073.31127216 244.31812341 2090.1633402 253.14539714 C2091.67519526 254.6572522 2091.23774819 256.10110142 2091.2883402 258.20789714 C2091.67280991 262.28968393 2092.63471679 264.03447408 2095.5383402 266.89539714 C2104.67012034 276.51271161 2103.30725535 294.6486986 2104.1633402 307.14539714 C2104.22263707 307.9844157 2104.28193395 308.82343425 2104.3430277 309.68787761 C2104.98466774 319.03939938 2105.29226567 328.39812815 2105.4133402 337.77039714 C2105.43477086 338.67088786 2105.45620152 339.57137859 2105.4782816 340.49915691 C2105.51605754 348.0144689 2104.4100095 354.16977523 2099.81568395 360.25477214 C2075.07767869 384.31648661 2029.28717227 377.38317807 1997.1633402 377.14539714 C1997.26778096 378.30611064 1997.26778096 378.30611064 1997.37433164 379.49027289 C1998.07272492 387.78382466 1998.33508392 396.0151537 1998.38402806 404.33559795 C1998.39545624 405.72117438 1998.40728162 407.10674757 1998.41946428 408.49231757 C1998.45154009 412.26704195 1998.47810374 416.04178734 1998.50371669 419.81656034 C1998.53248474 423.90821891 1998.56650185 427.99983435 1998.59989415 432.09145732 C1998.657233 439.19929267 1998.71140414 446.30714643 1998.7635275 453.41502185 C1998.84003711 463.83531073 1998.92254817 474.25554608 1999.00657057 484.67577679 C1999.14438033 501.77540823 1999.27888979 518.87506379 1999.41065465 535.97474284 C1999.42247723 537.50876639 1999.42247723 537.50876639 1999.43453865 539.07378031 C1999.51343852 549.31602483 1999.59203838 559.55827165 1999.67053468 569.80051928 C2000.57826818 692.70358756 2000.57826818 692.70358756 2002.07584749 815.6004817 C2002.13444548 819.55022681 2002.19082947 823.5000021 2002.24707852 827.44978137 C2002.64841397 855.3361961 2003.24893181 883.21234767 2004.09950808 911.08843496 C2004.14284324 912.50933575 2004.18597336 913.9302428 2004.22888798 915.35115635 C2004.68021964 930.29475755 2005.1362428 945.22833746 2006.1633402 960.14539714 C2007.41319707 960.2735078 2008.66305394 960.40161846 2009.95078526 960.53361125 C2011.005352 960.64170462 2011.005352 960.64170462 2012.08122312 960.75198169 C2020.41908654 961.60209082 2028.76302961 962.27320237 2037.1242777 962.84070964 C2038.00984853 962.90173366 2038.89541936 962.96275768 2039.80782567 963.02563091 C2045.21708501 963.39813547 2045.21708501 963.39813547 2050.62766515 963.75077434 C2086.21720383 966.00441387 2086.21720383 966.00441387 2098.0383402 979.39539714 C2103.92840241 987.06378529 2105.34354055 993.28365338 2105.30005895 1002.86414714 C2105.29778295 1003.60544872 2105.29550694 1004.34675029 2105.29316197 1005.11051555 C2105.2189252 1013.44331995 2104.62946688 1021.72129072 2103.9133402 1030.02039714 C2103.84676213 1030.80299907 2103.78018407 1031.585601 2103.71158849 1032.39191814 C2100.97062717 1064.05851994 2100.97062717 1064.05851994 2093.29224645 1074.98914714 C2091.27487511 1078.8423962 2092.23263956 1082.02372291 2093.1633402 1086.14539714 C2072.29955871 1098.22442853 2032.28996591 1093.90941707 2010.1633402 1088.14539714 C2008.61343186 1097.90093138 2007.64719815 1107.55407296 2007.1320902 1117.41883464 C2007.0916509 1118.1621038 2007.05121159 1118.90537296 2007.00954686 1119.67116542 C2005.58060015 1146.29144533 2005.18904173 1172.96415297 2004.57477818 1199.61243816 C2004.40001329 1207.18566372 2004.21963625 1214.75871467 2004.03176366 1222.33162685 C2003.9478037 1225.80164719 2003.87171448 1229.2717763 2003.79603063 1232.74198528 C2003.5317549 1243.92614076 2003.04823398 1255.06474647 2002.20044957 1266.22108074 C2002.07933183 1267.816542 2002.07933183 1267.816542 2001.95576726 1269.4442348 C2000.56421216 1286.58511406 1998.45790295 1302.05202766 1985.1633402 1314.14539714 C1952.57860465 1338.884768 1899.33870574 1337.2540341 1860.1008402 1339.02039714 C1858.63384679 1339.09423625 1858.63384679 1339.09423625 1857.13721715 1339.16956706 C1848.43646595 1339.46290272 1839.86564258 1338.75165999 1832.2883402 1334.14539714 C1826.28900173 1330.28636239 1826.28900173 1330.28636239 1819.4758402 1329.45789714 C1817.16575388 1330.07177974 1817.16575388 1330.07177974 1815.1633402 1331.14539714 C1769.6282788 1336.77860061 1721.98620968 1334.19462671 1676.1555277 1334.66883464 C1675.08926388 1334.67989159 1674.02300007 1334.69094855 1672.92442523 1334.70234056 C1622.36852268 1335.22221897 1571.81492826 1335.30021644 1521.25675188 1335.27396603 C1513.03843606 1335.2701482 1504.82013217 1335.27160184 1496.60181676 1335.27576824 C1406.37216565 1335.32026297 1406.37216565 1335.32026297 1373.8117777 1334.70008464 C1372.77676751 1334.6806694 1371.74175733 1334.66125415 1370.6753832 1334.64125057 C1365.33055837 1334.53597925 1359.98758995 1334.40414526 1354.64465581 1334.22684093 C1352.92857464 1334.1705143 1351.21233223 1334.11897081 1349.49598943 1334.07127757 C1346.87083336 1333.99524041 1344.24710231 1333.89952544 1341.62281285 1333.79822917 C1340.45030256 1333.76767594 1340.45030256 1333.76767594 1339.2541052 1333.73650546 C1333.72410732 1333.48875469 1330.32032433 1332.30238128 1326.4133402 1328.39539714 C1324.7377084 1325.37925991 1324.4907258 1322.55020747 1324.1633402 1319.14539714 C1321.79100408 1319.18320012 1321.79100408 1319.18320012 1319.1633402 1320.14539714 C1317.82002365 1322.13870556 1316.48740008 1324.1392458 1315.1633402 1326.14539714 C1310.65956984 1328.92697787 1306.38583018 1329.78218099 1301.19849645 1330.27039714 C1300.44979787 1330.34894939 1299.70109929 1330.42750163 1298.92971288 1330.50843425 C1291.83157377 1331.23094951 1284.72455873 1331.75160124 1277.6008402 1332.14539714 C1276.89913701 1332.18486461 1276.19743382 1332.22433208 1275.4744669 1332.26499553 C1259.81319702 1333.13174398 1244.13676866 1333.64474382 1228.46026479 1334.14442058 C1226.55518209 1334.2053592 1224.65013844 1334.26751482 1222.74509679 1334.32972331 C1213.73559813 1334.61994934 1204.7255016 1334.86586518 1195.71400701 1335.08368297 C1193.97912524 1335.12565897 1192.24425723 1335.16820664 1190.5094019 1335.2112617 C1111.07475125 1337.17196187 1031.56373471 1336.48578258 952.11293565 1336.21379752 C940.54142462 1336.17426136 928.96994504 1336.13883898 917.39838658 1336.11652751 C893.40110193 1336.06867783 869.40546329 1335.97639925 845.40918027 1335.74269672 C835.28054504 1335.64495858 825.15307548 1335.5699858 815.0239359 1335.55982585 C806.46755592 1335.55098383 797.91346406 1335.49122182 789.35798709 1335.36422469 C785.01890108 1335.30121382 780.68307556 1335.26142197 776.34352933 1335.2868671 C749.08932925 1335.42145562 749.08932925 1335.42145562 742.38187657 1329.84171672 C739.48310426 1326.81901495 737.35657744 1323.56556797 735.31365643 1319.92689319 C732.88685736 1316.16850675 729.61048596 1313.55437312 725.2883402 1312.33289714 C724.5870902 1312.27102214 723.8858402 1312.20914714 723.1633402 1312.14539714 C723.89733432 1315.43963505 723.89733432 1315.43963505 727.2258402 1316.95789714 C730.1633402 1319.14539714 730.1633402 1319.14539714 730.7883402 1322.14539714 C730.04038654 1325.7355747 729.03850123 1326.92741578 726.1633402 1329.14539714 C723.52330311 1330.0254095 721.82898671 1330.30702469 719.11004125 1330.410778 C718.28576131 1330.44436412 717.46148137 1330.47795024 716.61222325 1330.51255412 C715.25923634 1330.56090907 715.25923634 1330.56090907 713.87891637 1330.61024089 C712.92514607 1330.64779491 711.97137578 1330.68534892 710.98870336 1330.72404094 C707.81138918 1330.84799069 704.63387271 1330.96553338 701.45630895 1331.08289714 C699.2199126 1331.16843301 696.9835287 1331.25429476 694.74715672 1331.3404655 C690.02848053 1331.52134606 685.30970427 1331.69924186 680.59083043 1331.87488933 C674.66325884 1332.09561428 668.7359201 1332.32194127 662.80864488 1332.55047221 C658.16542931 1332.72908193 653.52212361 1332.90525635 648.87878858 1333.08073039 C646.7024262 1333.16310022 644.52608282 1333.24597401 642.34976254 1333.32944866 C609.88202604 1334.56924846 577.40543519 1335.30285477 544.91724645 1335.70008464 C543.67458732 1335.71562774 543.67458732 1335.71562774 542.40682398 1335.73148485 C498.13242023 1336.28443983 453.85808694 1336.30246729 409.580855 1336.27416988 C402.99705268 1336.27006598 396.4132507 1336.26829385 389.82944737 1336.26670451 C325.89231711 1336.24922295 261.9621253 1336.08186933 198.02967606 1335.24661727 C192.1258815 1335.16962728 186.22204807 1335.09852518 180.31812535 1335.03211589 C160.59846391 1334.80935702 140.88065066 1334.52711476 121.1633402 1334.14539714 C120.38847516 1334.13042438 119.61361012 1334.11545162 118.81526433 1334.10002513 C-63.24278809 1330.56255277 -63.24278809 1330.56255277 -86.2116598 1313.89539714 C-95.68453637 1303.97143122 -98.71584773 1291.54284583 -100.5241598 1278.33289714 C-100.64363978 1277.47607341 -100.76311976 1276.61924968 -100.88622035 1275.73646159 C-103.37629807 1255.53275355 -103.05708506 1234.90768274 -103.34191193 1214.58680673 C-103.39300478 1210.98949159 -103.44777369 1207.39223205 -103.50204982 1203.79496379 C-103.59241139 1197.77264527 -103.68036832 1191.75029581 -103.76659144 1185.72791667 C-103.87672286 1178.03636875 -103.99081753 1170.34488493 -104.10616912 1162.65341373 C-104.20631207 1155.97462139 -104.30476154 1149.29580423 -104.40288366 1142.61698194 C-104.4340575 1140.49890205 -104.46543534 1138.38082525 -104.49683322 1136.26274867 C-104.55544016 1132.2996582 -104.61229053 1128.33654351 -104.66893519 1124.37342449 C-104.68606563 1123.22199962 -104.70319606 1122.07057475 -104.7208456 1120.88425823 C-104.82730558 1113.30416797 -104.85545185 1105.726194 -104.8366598 1098.14539714 C-106.25506412 1098.15873781 -106.25506412 1098.15873781 -107.70212306 1098.17234798 C-118.69781065 1098.26964583 -129.66725908 1097.85635248 -140.65208949 1097.40076824 C-143.83056018 1097.27064685 -147.00932191 1097.15121438 -150.1882223 1097.03211589 C-187.89916552 1095.53884255 -187.89916552 1095.53884255 -196.7741598 1086.64539714 C-205.41489512 1075.70724279 -203.99762509 1058.29053268 -204.00462855 1045.15320964 C-204.00785138 1043.71651295 -204.01121618 1042.27981657 -204.01471461 1040.84312053 C-204.02066636 1037.84605266 -204.02255855 1034.84901346 -204.02196254 1031.85194011 C-204.021861 1028.04416519 -204.03552279 1024.23657706 -204.05273475 1020.42884631 C-204.0639449 1017.46540633 -204.06587902 1014.50201029 -204.06535281 1011.53855129 C-204.06651902 1010.136173 -204.07086265 1008.73379306 -204.07868518 1007.33143611 C-204.20355782 982.641618 -204.20355782 982.641618 -197.21556605 975.48524089 C-189.4200393 969.46675894 -180.68079239 967.34112726 -171.10619105 965.66102214 C-170.37282527 965.53220149 -169.63945949 965.40338085 -168.8838705 965.27065654 C-160.28659178 963.81324523 -151.63516051 962.94368712 -142.9616598 962.08289714 C-128.32691354 960.63047801 -128.32691354 960.63047801 -113.8366598 958.14539714 C-110.42502039 905.0835161 -110.89445332 851.66224565 -110.37181605 798.50867839 C-110.36140513 797.45432786 -110.3509942 796.39997733 -110.34026779 795.31367679 C-109.60634602 720.57726627 -109.276367 645.83730914 -108.87386848 571.09856249 C-108.79562333 556.57640823 -108.71627885 542.05426026 -108.63622035 527.53211589 C-108.63050908 526.49606871 -108.62479782 525.46002153 -108.61891348 524.39257897 C-108.59023062 519.19039551 -108.56153015 513.98821214 -108.53282095 508.78602882 C-108.29804075 466.23916631 -108.0662777 423.6922878 -107.8366598 381.14539714 C-111.37144505 380.65482649 -114.90668134 380.16758295 -118.44200648 379.6809196 C-119.43839515 379.54259589 -120.43478381 379.40427219 -121.46136607 379.26175685 C-128.00786242 378.36270124 -134.51614244 377.63565038 -141.1179098 377.30164714 C-142.98770679 377.18845371 -144.85749831 377.07516998 -146.7272848 376.96180339 C-149.54808093 376.80088219 -152.36904563 376.64361825 -155.19017543 376.48865886 C-187.87520589 374.65726665 -187.87520589 374.65726665 -196.8366598 365.14539714 C-204.83469718 355.5948811 -207.20911863 348.65130311 -207.1491598 336.33289714 C-207.14569545 335.16524822 -207.14223109 333.99759929 -207.13866176 332.79456706 C-207.02396982 323.14080092 -206.38767693 313.57000605 -205.5241598 303.95789714 C-205.46539668 303.28423106 -205.40663356 302.61056499 -205.34608974 301.91648479 C-202.5811255 270.88986284 -202.5811255 270.88986284 -193.8366598 262.14539714 C-192.53305076 258.88637454 -192.7576798 255.6205172 -192.8366598 252.14539714 C-180.70533013 245.93867033 -166.60331306 246.85261115 -153.3366598 246.95789714 C-151.55134197 246.96542419 -149.76602291 246.97266554 -147.98070277 246.97962566 C-113.80345468 247.1619997 -113.80345468 247.1619997 -109.8366598 249.14539714 C-109.84353313 247.74441783 -109.84353313 247.74441783 -109.8505453 246.31513591 C-109.96881067 219.53516986 -109.61338157 192.7785863 -109.02934779 166.00536723 C-108.96061763 162.84751381 -108.89315896 159.68963513 -108.82591762 156.53174968 C-108.30777265 132.31522209 -107.76916018 108.10009287 -106.8366598 83.89539714 C-106.80090846 82.92759319 -106.76515712 81.95978923 -106.7283224 80.96265788 C-104.94915089 33.92984421 -104.94915089 33.92984421 -91.7194723 21.09070964 C-65.92894676 -1.22634445 -32.00758058 -0.0110698 0 0 Z M26.1633402 129.14539714 C24.24305055 141.92851318 22.68834559 154.48403961 22.48169957 167.42225261 C22.44866373 168.9437151 22.41518591 170.46516804 22.38131963 171.98661228 C21.96335624 192.41078994 22.03189235 212.84398064 22.06462155 233.27124925 C22.06969387 236.78757847 22.07277192 240.30390419 22.07522069 243.82023616 C22.10365063 284.58254162 22.27612804 325.34377398 22.48398648 366.10548969 C22.97834557 463.0846299 23.21253777 560.06305163 23.28617083 763.04025729 C23.28732342 779.39682183 23.29051383 795.75338486 23.29491177 812.10994883 C23.30105366 835.1245166 23.30313362 858.13907999 23.29890154 881.15364833 C23.29848329 883.47133505 23.29806925 885.78902176 23.2976595 888.10670848 C23.2974574 889.24391206 23.2972553 890.38111564 23.29704707 891.55277993 C23.29589523 899.34927585 23.29715041 907.14576893 23.29949819 914.94226451 C23.31034103 954.64090392 23.31444786 994.33939834 22.80726023 1034.03542583 C22.78082389 1036.16947388 22.75708944 1038.30353496 22.73415457 1040.43762322 C22.57497355 1054.82000255 22.16088124 1069.16134011 21.24979649 1083.5149345 C21.17367883 1084.75157104 21.09756116 1085.98820759 21.01913689 1087.26231797 C20.57157489 1093.71684658 20.103456 1099.95280332 18.1633402 1106.14539714 C16.19883417 1107.21715315 16.19883417 1107.21715315 14.1633402 1108.14539714 C10.96066857 1112.94940458 10.79135932 1116.56568397 11.1633402 1122.14539714 C11.4933402 1122.80539714 11.8233402 1123.46539714 12.1633402 1124.14539714 C15.1333402 1124.14539714 18.1033402 1124.14539714 21.1633402 1124.14539714 C21.65128418 1126.24754574 22.12814764 1128.35226664 22.6008402 1130.45789714 C23.0010941 1132.21553386 23.0010941 1132.21553386 23.40943395 1134.00867839 C25.67858472 1145.50429518 25.44357212 1157.37047141 25.64014684 1169.04163738 C25.1518907 1185.05122419 25.1518907 1185.05122419 31.1633402 1199.14539714 C36.13914648 1201.6395513 40.67598843 1202.7570187 46.2258402 1203.27039714 C47.40835362 1203.38822551 47.40835362 1203.38822551 48.61475621 1203.50843425 C61.8222458 1204.7509597 75.0625027 1205.09499287 88.3195902 1205.35633464 C137.97366821 1206.33987979 137.97366821 1206.33987979 156.5930277 1210.65711589 C159.55256376 1211.06186645 161.39812598 1211.09083549 164.27051793 1210.70911784 C169.18310495 1210.11545692 174.07680711 1209.83076043 179.01880895 1209.61414714 C179.93413899 1209.57261516 180.84946904 1209.53108318 181.79253636 1209.48829265 C191.01793822 1209.08405373 200.24380803 1208.83393753 209.4758402 1208.64539714 C210.89780202 1208.61554729 210.89780202 1208.61554729 212.34849034 1208.58509441 C265.39054542 1207.48616492 318.44865993 1207.09394444 371.4992777 1206.65320964 C372.78414437 1206.64250706 374.06901104 1206.63180447 375.39281307 1206.62077756 C430.39679671 1206.16400886 485.40119155 1205.84401352 540.406633 1205.62042232 C543.08033685 1205.6095455 545.75404068 1205.59866533 548.42774449 1205.58777995 C549.42069658 1205.58374464 549.42069658 1205.58374464 550.4337083 1205.5796278 C560.45843936 1205.53874406 570.48313263 1205.49216551 580.50782262 1205.44227214 C638.4297999 1205.15516048 696.34796879 1205.03734593 754.26943148 1205.45400283 C758.96896457 1205.48762745 763.66850752 1205.51728216 768.36807691 1205.54540248 C815.74838435 1205.83832763 815.74838435 1205.83832763 833.1489359 1206.99842449 C834.20494339 1207.06603795 835.26095088 1207.13365142 836.3489586 1207.20331378 C843.37343005 1207.77729141 850.16541267 1209.003577 855.6633402 1213.77039714 C859.51852894 1216.6661896 862.32797426 1217.22338691 867.1633402 1217.14539714 C869.77471966 1215.52053881 871.50564789 1213.99280839 873.3820902 1211.57508464 C879.66167863 1206.53488866 894.25079665 1207.93467675 902.07155858 1207.62476726 C903.11622118 1207.5828197 904.16088377 1207.54087214 905.23720281 1207.49765344 C917.46998244 1207.02856139 929.70435642 1206.78508192 941.94434606 1206.60047527 C942.61156455 1206.59019632 943.27878305 1206.57991738 943.96622029 1206.56932695 C992.38705613 1205.82791521 1040.81818072 1205.93768282 1089.24353327 1205.88256303 C1105.00213875 1205.86459657 1120.76073264 1205.84050252 1136.51932857 1205.81566252 C1144.32373285 1205.80337086 1152.12813757 1205.79136843 1159.93254243 1205.77945323 C1160.71355398 1205.77826071 1161.49456553 1205.77706819 1162.2992441 1205.77583953 C1180.78364372 1205.74768767 1199.26804715 1205.72244878 1217.75245152 1205.69764324 C1218.55746665 1205.69656204 1219.36248177 1205.69548084 1220.19189129 1205.69436688 C1227.51276614 1205.68453526 1234.83364101 1205.67472546 1242.15451591 1205.66493641 C1296.52966618 1205.59220419 1350.90481153 1205.5160625 1405.27994297 1205.43031313 C1406.83004878 1205.42786876 1408.38015459 1205.42542732 1409.93026041 1205.42298879 C1491.0578328 1205.29534275 1572.18499941 1205.12766678 1664.00775011 1204.7230538 C1670.8687123 1204.69234529 1677.72967741 1204.66254196 1684.59064752 1204.63365911 C1743.05815206 1204.40367229 1743.05815206 1204.40367229 1801.52100621 1203.67469402 C1802.65083232 1203.65594502 1803.78065842 1203.63719602 1804.94472168 1203.61787887 C1816.33771293 1203.42271502 1827.72373928 1203.12708067 1839.10973607 1202.67872234 C1840.08028135 1202.64201915 1841.05082663 1202.60531596 1842.05078237 1202.56750055 C1850.17027666 1202.22487826 1858.12494875 1201.31958358 1866.1633402 1200.14539714 C1867.00770101 1188.12611509 1867.30684081 1176.17848674 1867.29032384 1164.13193889 C1867.29147911 1162.27033329 1867.29306935 1160.40872793 1867.29505108 1158.54712303 C1867.2991947 1153.47343094 1867.29717567 1148.39975786 1867.29406486 1143.32606573 C1867.29178807 1137.82739558 1867.29530336 1132.32872853 1867.29804479 1126.83005901 C1867.30249115 1116.02999193 1867.30152697 1105.22993181 1867.29863214 1094.42986447 C1867.29635527 1085.55448446 1867.29607545 1076.67910637 1867.29715596 1067.80372615 C1867.29730919 1066.52993332 1867.29746243 1065.25614049 1867.2976203 1063.94374787 C1867.29794017 1061.35237092 1867.29826439 1058.76099397 1867.2985929 1056.16961703 C1867.30136768 1032.50340587 1867.29849207 1008.83719905 1867.2932503 985.1709886 C1867.28874179 964.66286057 1867.28861303 944.15473819 1867.29325731 923.6466102 C1867.31788912 814.61606401 1867.32922927 705.58667729 1866.21468317 537.02217818 C1866.17514308 531.74427591 1866.13631961 526.46636879 1866.09800969 521.18845744 C1866.0927263 520.46058707 1866.08744292 519.7327167 1866.08199943 518.98278965 C1866.07674699 518.2590998 1866.07149455 517.53540995 1866.06608294 516.78979011 C1865.8207609 482.99010183 1865.54925236 449.19067153 1865.25709103 415.39135356 C1865.18230891 406.72010907 1865.1097733 398.04884757 1865.0383402 389.37757488 C1864.45580875 318.61766154 1864.45580875 318.61766154 1863.6320902 247.86024089 C1863.62193883 247.09854477 1863.61178746 246.33684864 1863.60132848 245.55207081 C1863.10271752 206.26709412 1863.10271752 206.26709412 1862.22974645 166.98939128 C1862.15621592 163.8402845 1862.1217366 160.69162401 1862.0852152 157.54188152 C1862.03940172 155.34198936 1861.99254975 153.14211856 1861.9445902 150.94227214 C1861.93884984 149.39143932 1861.93884984 149.39143932 1861.93299352 147.80927654 C1861.8598275 145.16076702 1861.75032214 142.72907771 1861.1633402 140.14539714 C1853.60731088 133.30324261 1837.87841555 133.9289516 1828.21241246 133.57703777 C1827.17200338 133.53683765 1826.1315943 133.49663753 1825.05965768 133.45521922 C1812.93902728 133.01905356 1800.81792596 132.93277011 1788.69068395 132.86414714 C1786.05506135 132.84621075 1783.41944208 132.82797293 1780.78382359 132.80945964 C1774.23864861 132.76439964 1767.69345125 132.7244839 1761.14823149 132.68654151 C1755.54373159 132.6540424 1749.93924311 132.61995695 1744.33475743 132.58509441 C1717.94437322 132.42156272 1691.55389078 132.27917166 1665.1633402 132.14539714 C1664.14726186 132.14024089 1663.13118352 132.13508464 1662.08431493 132.12977214 C1572.52446936 131.67611839 1482.96409624 131.34530091 1029.1633402 130.14539714 C1027.86087625 130.14258656 1026.55841231 130.13977598 1025.21647976 130.13688023 C952.49478858 129.98005717 879.77308232 129.83080554 747.4758402 129.58289714 C746.72080574 129.58151425 745.96577129 129.58013135 745.18785701 129.57870656 C670.60116399 129.44211607 596.0144518 129.31414117 26.1633402 129.14539714 Z " fill="#FDFDFD" transform="translate(340.83665980398655,281.8546028584242)"/>
<path d="M0 0 C1.93641192 -0.00400564 3.87282347 -0.00819695 5.80923462 -0.01255798 C12.06554 -0.02392302 18.32181256 -0.02220936 24.578125 -0.01953125 C26.75124105 -0.0195874 28.9243571 -0.01964847 31.09747314 -0.01971436 C84.07905399 -0.00781265 137.08091445 0.83587926 190.015625 3.16796875 C191.25720367 3.22159576 191.25720367 3.22159576 192.52386475 3.27630615 C238.5550957 5.33189523 238.5550957 5.33189523 246.828125 13.16796875 C256.88817619 28.5539294 255.67323765 53.15850678 256.34884357 70.90147209 C256.39079582 71.98328683 256.43274807 73.06510157 256.4759716 74.17969858 C256.89839123 85.44899645 257.16591328 96.71930437 257.37162781 107.99441528 C257.39238857 109.10573 257.41314934 110.21704472 257.43453922 111.36203565 C257.96190318 140.19285975 258.04484679 169.02560158 258.11442167 197.86030779 C258.12808954 203.48994271 258.14385107 209.119569 258.16075325 214.7491951 C258.34755463 277.10414139 258.45121047 339.45933243 258.52830602 401.81450254 C258.53944197 410.79153729 258.55101187 419.76857148 258.56274414 428.74560547 C258.56403036 429.73722116 258.56531659 430.72883684 258.56664178 431.75050149 C258.60881286 464.03773206 258.69259297 496.32468974 258.79822473 528.61177008 C258.90696771 561.91069441 258.97673276 595.20946971 258.99619689 628.50857196 C258.99895399 633.20468063 259.00214399 637.90078891 259.00559044 642.59689713 C259.00625301 643.52090407 259.00691559 644.44491101 259.00759824 645.39691817 C259.01937706 660.25991731 259.07210209 675.12250144 259.14007061 689.98533803 C259.20730502 704.88569068 259.23093228 719.78560401 259.20965473 734.68609785 C259.19833422 743.53709421 259.22059226 752.38653539 259.29055872 761.23727038 C259.33396837 767.14407791 259.33399947 773.04984629 259.29843093 778.95670386 C259.27939432 782.32529637 259.28606907 785.68852115 259.33240197 789.05720983 C259.58438383 808.52524444 259.58438383 808.52524444 256.67003249 812.91060439 C253.52384731 815.92885448 249.98706891 817.16683808 245.828125 818.16796875 C244.84829724 818.42762606 243.86846947 818.68728336 242.85894996 818.95480907 C240.17485774 819.57858782 237.57080921 819.91094089 234.828125 820.16796875 C233.93037354 820.25377197 233.03262207 820.3395752 232.10766602 820.42797852 C120.65313654 830.00587744 120.65313654 830.00587744 82.8203125 815.15234375 C77.70190642 813.4684817 74.17560689 814.29624302 69.15625 816.16015625 C58.15304402 819.49211299 45.68415148 819.25857762 34.2734375 819.65625 C33.16793549 819.69527435 32.06243347 819.73429871 30.9234314 819.77450562 C28.51009763 819.8593381 26.09673574 819.94337334 23.68334961 820.02670288 C20.36566141 820.14827196 17.04931687 820.28521818 13.73259735 820.42977619 C6.5261046 820.74288006 -0.67796918 820.98392047 -7.88986969 821.13078785 C-11.61986385 821.20920839 -15.34293601 821.32137614 -19.06933594 821.50537109 C-43.24738215 822.6664359 -43.24738215 822.6664359 -49.63098145 818.60241699 C-53.53741128 814.79713686 -55.89964732 810.46417548 -57.9977417 805.47599792 C-59.08144185 803.09125071 -59.08144185 803.09125071 -60.96759033 801.20625305 C-68.99691615 792.40765393 -67.05618951 780.55712222 -66.890625 769.4140625 C-66.8804262 767.0013892 -66.87330427 764.58870121 -66.86903381 762.17601013 C-66.85077508 756.34399784 -66.80025078 750.51292764 -66.73480481 744.68126839 C-66.66032611 737.898449 -66.62526746 731.11559185 -66.5920769 724.33246565 C-66.52580612 711.06198155 -66.41512058 697.79215149 -66.28716755 684.52213669 C-66.1980083 675.23993023 -66.12265781 665.9577177 -66.05908203 656.67529297 C-66.05058165 655.4354493 -66.04208126 654.19560564 -66.03332329 652.91819096 C-66.0249148 651.69147899 -66.01650631 650.46476702 -66.00784302 649.20088196 C-65.10023358 516.96822345 -65.10023358 516.96822345 -59.84960938 501.22607422 C-58.8478888 498.18410575 -58.49736934 496.33814534 -59.171875 493.16796875 C-62.34422135 487.98943452 -66.47696785 483.82545103 -70.859375 479.66796875 C-82.48791893 468.33657671 -80.97835449 451.73121933 -81.23095703 436.63769531 C-81.8320441 379.28333653 -81.8320441 379.28333653 -73.12890625 363.24609375 C-62.66470553 342.55824864 -65.52146917 312.8728007 -64.67578125 290.21484375 C-64.63355942 289.08835419 -64.59133759 287.96186462 -64.5478363 286.80123901 C-64.34054667 281.22797974 -64.14129916 275.65462708 -63.95678711 270.08056641 C-63.58435666 259.24349097 -63.04817351 248.43977963 -62.1953125 237.62890625 C-62.11539063 236.60783783 -62.03546875 235.58676941 -61.953125 234.53475952 C-60.16669149 213.09688879 -60.16669149 213.09688879 -54.171875 206.16796875 C-52.0250258 201.46534669 -52.16515596 198.20156396 -53.171875 193.16796875 C-54.8425 193.01328125 -54.8425 193.01328125 -56.546875 192.85546875 C-58.34125 192.51515625 -58.34125 192.51515625 -60.171875 192.16796875 C-64.20728031 186.11486078 -63.31560341 178.43062845 -63.30126953 171.38574219 C-63.30302185 170.31881638 -63.30477417 169.25189056 -63.30657959 168.15263367 C-63.31098828 164.61085388 -63.30805272 161.0691241 -63.3046875 157.52734375 C-63.30536336 155.01068106 -63.30633572 152.49401843 -63.30758667 149.97735596 C-63.30906439 144.66442188 -63.30701425 139.3515051 -63.30224609 134.03857422 C-63.29637372 127.42297494 -63.29981939 120.80741101 -63.30569839 114.19181061 C-63.33307986 77.50504663 -62.92098555 40.84617323 -62.171875 4.16796875 C-41.34203121 1.34875256 -21.00247414 0.01087359 0 0 Z M63.828125 115.16796875 C62.48381701 120.21492587 62.482137 125.38204732 62.28540039 130.57324219 C62.24357919 131.66170315 62.20175798 132.75016411 62.15866947 133.87160873 C61.61442763 149.5461823 61.596371 165.23028975 61.52482724 180.9125638 C61.50685037 184.71273108 61.48578384 188.51287914 61.46480292 192.31303084 C61.39541022 204.91061791 61.33724124 217.50824684 61.28068066 230.10589695 C61.2605375 234.53716063 61.23947395 238.96841973 61.21839976 243.39967906 C60.65069243 362.96088636 60.30145487 482.53608403 61.828125 706.16796875 C67.62244714 705.90255341 73.41671421 705.63597281 79.2109375 705.3684082 C81.17348861 705.27793485 83.1360533 705.18775542 85.09863281 705.09790039 C91.67556197 704.79665415 98.25203991 704.48711747 104.828125 704.16796875 C105.70859497 704.12565125 106.58906494 704.08333374 107.49621582 704.03973389 C109.97428407 703.91887675 112.45200179 703.79249798 114.9296875 703.6640625 C115.65900482 703.62886002 116.38832214 703.59365753 117.13973999 703.55738831 C120.78716374 703.36178488 124.26889134 702.99995802 127.828125 702.16796875 C131.76203269 686.62330439 131.05612825 669.80974133 131.37304688 653.86157227 C131.39384528 652.8552554 131.41464369 651.84893854 131.43607235 650.81212723 C131.92066336 627.06341437 132.02925449 603.31507127 132.09851646 579.56214213 C132.11718152 573.5599336 132.14140511 567.55774742 132.16516113 561.55555725 C132.22927985 545.12173528 132.28557834 528.68788872 132.34114838 512.25403595 C132.39239028 497.10415345 132.44544767 481.95428369 132.50567389 466.80443388 C132.52904332 460.87522723 132.55064172 454.94602626 132.56776428 449.01679802 C132.79968451 369.25329023 132.79968451 369.25329023 136.828125 357.16796875 C137.6325 356.85859375 138.436875 356.54921875 139.265625 356.23046875 C141.9007095 355.421744 141.9007095 355.421744 142.97167969 353.40209961 C143.93001098 350.90218808 144.08646157 349.03136685 144.09375 346.359375 C144.09632813 345.44736328 144.09890625 344.53535156 144.1015625 343.59570312 C144.08996094 342.17741211 144.08996094 342.17741211 144.078125 340.73046875 C144.08585937 339.78880859 144.09359375 338.84714844 144.1015625 337.87695312 C144.16435255 331.25755699 144.16435255 331.25755699 141.828125 325.16796875 C141.003125 324.83796875 140.178125 324.50796875 139.328125 324.16796875 C136.828125 323.16796875 136.828125 323.16796875 135.73828125 321.16796875 C131.72904575 307.95297793 132.64026685 292.77463179 132.30078125 279.06152344 C132.26973801 277.86182741 132.26973801 277.86182741 132.23806763 276.63789511 C131.82279215 260.5712349 131.57257738 244.50381559 131.38256836 228.4331131 C131.32680149 223.71673664 131.26625007 219.00042769 131.20507812 214.28411865 C131.03229381 200.91001997 130.86591268 187.53584497 130.703125 174.16162109 C130.61222284 166.69671022 130.51781431 159.23185179 130.41960907 151.76703334 C130.35811943 147.07658515 130.30105635 142.38611083 130.24732971 137.69556761 C130.2132439 134.80781126 130.17508884 131.92011966 130.13574219 129.03243065 C130.10995414 127.04941665 130.08910006 125.06634043 130.06835938 123.08326721 C130.05160156 121.91531113 130.03484375 120.74735504 130.01757812 119.54400635 C130.00505005 118.52370457 129.99252197 117.50340279 129.97961426 116.45218277 C130.08231604 114.2025717 130.08231604 114.2025717 128.828125 113.16796875 C127.12397627 113.00858384 125.41348192 112.91641353 123.703125 112.8515625 C122.61580078 112.80942627 121.52847656 112.76729004 120.40820312 112.72387695 C119.22677734 112.68480225 118.04535156 112.64572754 116.828125 112.60546875 C115.62091797 112.56446045 114.41371094 112.52345215 113.16992188 112.48120117 C104.89029343 112.22071 96.61170621 112.03672934 88.328125 111.98046875 C87.33425781 111.96749756 86.34039063 111.95452637 85.31640625 111.94116211 C78.29960253 111.93228457 70.22588632 111.96908809 63.828125 115.16796875 Z " fill="#FCFCFC" transform="translate(580.171875,542.83203125)"/>
<path d="M0 0 C3.62692514 0.00402407 7.25384876 0.00650614 10.88077545 0.00867462 C167.07211692 0.11619077 167.07211692 0.11619077 185.77011871 18.44147491 C187.29476688 19.9799333 188.79241648 21.54537069 190.27011871 23.12897491 C190.77342712 23.52883606 191.27673553 23.9286972 191.79529572 24.34067535 C194.81997086 27.07785479 196.13060308 29.25283771 196.77823639 33.31987762 C196.92179095 37.62555948 196.85511982 41.89071259 196.73105621 46.19538116 C196.70356785 47.93261198 196.67872287 49.66988617 196.65619659 51.40718842 C196.59786763 55.38023857 196.51814223 59.35221306 196.4247818 63.32459259 C196.26575678 70.11569138 196.14769012 76.90721198 196.03279543 83.69918132 C195.75261644 100.14200076 195.40479838 116.58318742 195.04706168 133.02447188 C194.92909882 138.45841201 194.81480623 143.89241999 194.7027359 149.32648468 C194.03658635 181.60799708 193.30527649 213.88636413 192.32072783 246.15992665 C192.26010589 248.15106832 192.20023818 250.14223291 192.1403923 252.13339806 C191.4160728 276.02721132 190.34536865 299.89900458 189.14902496 323.77350616 C189.07311441 325.31862837 189.07311441 325.31862837 188.99567032 326.89496517 C188.46713237 336.88347571 186.19509914 346.42089526 181.58261871 355.31647491 C181.24029205 355.9921048 180.89796539 356.66773468 180.5452652 357.3638382 C177.91605962 362.35399973 174.81093021 366.49856326 170.83652496 370.52741241 C168.41135506 373.00701256 168.23561103 374.336021 167.64511871 377.87897491 C167.82294393 389.01083367 179.35845144 400.01225827 186.08261871 408.16803741 C186.54247162 408.74961105 187.00232452 409.33118469 187.47611237 409.93038177 C188.76868889 411.51446194 190.11985084 413.05136867 191.50510406 414.5550766 C198.68320753 422.92556445 199.59848065 430.01878439 199.55136871 440.78913116 C199.57709621 442.42106802 199.6067807 444.05294656 199.64011383 445.68474579 C199.71772394 449.99059008 199.74327275 454.29517095 199.75693512 458.60163116 C199.77823066 462.78502197 199.84566307 466.96755994 199.91074371 471.15045929 C200.00001873 477.16986551 200.07106505 483.18905314 200.12245655 489.20890141 C200.22475681 501.04585189 200.46079818 512.87758601 200.72016716 524.71200562 C201.31783271 552.28911321 201.47035084 579.85850877 201.45761871 607.44147491 C201.45749912 608.60024517 201.45737953 609.75901543 201.45725632 610.95289993 C201.43647467 770.78767783 201.43647467 770.78767783 176.89511871 797.06647491 C156.23115385 816.53558466 117.77479017 813.33769114 91.45761871 814.75397491 C90.29884216 814.81650452 89.14006561 814.87903412 87.94617462 814.94345856 C79.72258027 815.38069612 71.49746146 815.7695015 63.27011871 816.12897491 C61.58497665 816.20476273 61.58497665 816.20476273 59.86579132 816.2820816 C35.41958041 817.34421719 10.96379763 817.31646116 -13.50112152 817.31427765 C-19.37737793 817.31417564 -25.2535146 817.32791098 -31.12974262 817.34504986 C-35.7501858 817.35630213 -40.37060099 817.35819298 -44.99105644 817.35766792 C-47.15499223 817.35882503 -49.31892931 817.36311378 -51.48285103 817.37100029 C-63.27882009 817.4100367 -74.98889909 817.10786782 -86.75600433 816.23957062 C-87.83476491 816.16199367 -88.91352549 816.08441671 -90.02497578 816.00448895 C-95.77388479 815.53856469 -101.24781499 814.97845768 -106.72988129 813.12897491 C-107.68370699 810.2674978 -107.91376905 808.24956354 -108.02870941 805.26593781 C-108.0680661 804.28048477 -108.10742279 803.29503174 -108.14797211 802.27971649 C-108.18531464 801.21032333 -108.22265717 800.14093018 -108.26113129 799.03913116 C-108.32342926 797.35618706 -108.32342926 797.35618706 -108.38698578 795.63924408 C-108.81364565 783.61720032 -109.04859499 771.59437356 -109.22988129 759.56647491 C-109.24978119 758.31370758 -109.26968109 757.06094025 -109.29018402 755.77021027 C-109.62007756 734.88684716 -109.8109582 714.00246654 -109.97988129 693.11725616 C-109.99035995 691.8269795 -110.00083862 690.53670284 -110.01163483 689.20732689 C-110.1176502 676.09495364 -110.21949719 662.9825649 -110.31080532 649.87007999 C-110.6079953 607.49228574 -111.00116151 565.10410928 -112.66738129 522.75397491 C-112.71001099 521.64323608 -112.75264069 520.53249725 -112.79656219 519.38809967 C-113.76400989 493.72759307 -113.76400989 493.72759307 -115.72988129 468.12897491 C-115.81286469 467.25031769 -115.89584808 466.37166046 -115.98134613 465.46637726 C-117.05422673 454.97710741 -119.70256039 445.89170198 -123.67006683 436.13434601 C-136.28784687 404.70221603 -136.0441809 369.3146188 -122.85243988 338.04938507 C-118.33938556 328.27480601 -118.33938556 328.27480601 -114.14003754 325.28522491 C-110.30303863 321.85244793 -109.88113126 317.41651774 -109.55365753 312.46372223 C-109.48214703 309.36702806 -109.47898302 306.27721138 -109.49941254 303.17975616 C-109.49987076 302.01365311 -109.50032898 300.84755005 -109.50080109 299.64611053 C-109.50381836 297.16569761 -109.51168892 294.6852865 -109.52407074 292.20490265 C-109.54183445 288.55386742 -109.54458327 284.90309484 -109.54433441 281.25202179 C-109.56307785 269.39032047 -109.72167658 257.54535666 -110.09361458 245.69019222 C-110.75361491 224.64416842 -110.87937067 203.61300802 -110.86420679 182.5580337 C-110.86160549 177.78403728 -110.86404129 173.01004238 -110.86559296 168.23604584 C-110.8673911 160.24177446 -110.86506967 152.24751244 -110.86025238 144.25324249 C-110.85479746 135.09682785 -110.85659095 125.94043544 -110.86207879 116.78402132 C-110.86665787 108.81517346 -110.86723779 100.84633218 -110.86464012 92.87748343 C-110.86310556 88.16437864 -110.86280407 83.45128422 -110.86617661 78.73818016 C-110.89212145 36.5976855 -110.89212145 36.5976855 -109.72988129 16.12897491 C-109.69124088 15.18399076 -109.65260048 14.23900661 -109.61278915 13.26538658 C-109.5574992 12.37236399 -109.50220924 11.47934139 -109.44524384 10.55925751 C-109.40383837 9.77526046 -109.3624329 8.99126341 -109.31977272 8.18350887 C-108.50600445 5.34923386 -107.24488854 4.58447146 -104.72988129 3.12897491 C-101.93825936 2.60209114 -99.31388125 2.23027657 -96.49819183 1.98004913 C-95.69776553 1.90095747 -94.89733923 1.82186581 -94.07265759 1.74037743 C-86.20344264 1.00237553 -78.33669887 0.67826855 -70.43691254 0.51178741 C-69.67323679 0.49334904 -68.90956104 0.47491066 -68.12274361 0.45591354 C-45.42009259 -0.08874599 -22.70763376 -0.0265247 0 0 Z M13.27011871 105.12897491 C12.28259322 108.0915514 12.01534714 110.41815494 11.80527496 113.52057648 C11.72849518 114.62733734 11.65171539 115.73409821 11.57260895 116.87439728 C11.49341217 118.07731415 11.41421539 119.28023102 11.33261871 120.51959991 C11.20512238 122.39575989 11.20512238 122.39575989 11.07505035 124.30982208 C10.89500137 126.97290203 10.71650585 129.63603187 10.54062653 132.29938507 C10.27669448 136.29377127 10.00395733 140.28753488 9.73105621 144.28131866 C9.21575507 151.89552141 8.72965672 159.51120519 8.27011871 167.12897491 C8.18049362 168.613703 8.18049362 168.613703 8.08905792 170.1284256 C7.0916167 187.36933889 7.08266086 204.62357145 7.08481598 221.8872757 C7.08489706 225.12105676 7.07796408 228.35469561 7.06430817 231.58844757 C4.66460812 279.9327307 4.66460812 279.9327307 17.02011871 325.12897491 C25.2945246 332.48400237 41.73799082 330.6258906 52.27011871 330.12897491 C62.08570883 329.25681528 62.08570883 329.25681528 70.27011871 324.12897491 C72.28355762 311.8368605 72.44656308 299.04072978 72.8265152 286.61725616 C72.84752505 285.93898521 72.86853491 285.26071426 72.89018142 284.56188965 C73.39666899 267.8368687 73.40086521 251.11459599 73.37151265 234.38343048 C73.3651152 230.09679082 73.36466273 225.81014986 73.36348724 221.52350616 C73.36042093 213.46389096 73.35227334 205.40428987 73.34213775 197.34468079 C73.33082753 188.14459939 73.32542923 178.9445172 73.32044232 169.74443054 C73.31008481 150.8726041 73.29257998 132.00079065 73.27011871 113.12897491 C71.19718538 112.31640765 69.12275731 111.50765292 67.0477066 110.70050812 C65.89267136 110.24972397 64.73763611 109.79893982 63.54759979 109.33449554 C59.61642084 107.88853225 55.84169555 106.92352968 51.70761871 106.31647491 C50.94602448 106.19812286 50.18443024 106.07977081 49.39975739 105.95783234 C37.46127756 104.34805785 25.28428506 104.87687522 13.27011871 105.12897491 Z M19.58261871 447.12897491 C14.37502301 453.88477474 12.98613816 460.75429409 12.19199371 469.08356476 C12.10736374 469.95729925 12.02273376 470.83103374 11.93553925 471.73124504 C11.00341632 482.07323205 10.84859408 492.41582523 10.70761871 502.79303741 C10.67199715 504.93918998 10.63551724 507.08532844 10.59824371 509.23145294 C10.52097426 513.7466144 10.44813432 518.26181389 10.37900543 522.77710724 C10.19837662 534.50415488 9.98340428 546.23060897 9.77011871 557.95709991 C9.74940308 559.10783871 9.72868744 560.2585775 9.70734406 561.44418716 C8.99014139 601.11916782 7.87927339 640.80473945 4.95639801 680.38703156 C4.85517266 681.82574735 4.7540157 683.26446796 4.65293121 684.70319366 C4.55770172 685.99829865 4.46247223 687.29340363 4.36435699 688.62775421 C4.23808437 693.31914219 4.6277803 697.18296622 7.27011871 701.12897491 C17.69508747 711.9087201 44.25644686 712.03726249 58.32480621 712.28131866 C62.06745621 712.08773332 64.1538734 711.20647179 67.27011871 709.12897491 C74.91604301 699.99634311 74.36458975 686.52391403 74.83261871 675.19147491 C74.8973941 673.86212921 74.8973941 673.86212921 74.96347809 672.50592804 C76.02900618 647.35608249 75.17018178 622.06868109 74.89780426 596.90558624 C74.8543076 592.88021213 74.81263864 588.85482638 74.77280426 584.82941437 C74.55478331 562.83048548 74.26656949 540.83490246 73.78964996 518.83991241 C73.77042543 517.92541006 73.7512009 517.01090771 73.73139381 516.06869316 C75.66774192 481.22992404 75.66774192 481.22992404 66.58090973 450.33478546 C55.63172739 442.39162078 30.76450501 438.80757116 19.58261871 447.12897491 Z " fill="#FCFCFC" transform="translate(1471.729881286621,540.8710250854492)"/>
<path d="M0 0 C2.92174269 -0.00619094 5.84345038 -0.01608147 8.76517868 -0.02705765 C109.13555027 -0.38028935 109.13555027 -0.38028935 139.46149826 28.18122482 C140.2154261 28.73710281 140.2154261 28.73710281 140.98458481 29.30421066 C143.6446787 31.48193084 145.23854289 33.12997866 145.96502304 36.55537033 C146.10799757 39.58110168 146.04499969 42.54516255 145.91852951 45.57184982 C145.89361938 46.74040512 145.86870926 47.90896042 145.84304428 49.11292648 C145.76449134 52.41845999 145.65687129 55.72075428 145.53645706 59.02488327 C145.43260165 62.01249439 145.35182304 65.00059464 145.2700901 67.98888016 C145.01626034 77.22229839 144.69213367 86.45237908 144.3445549 95.68268967 C144.21370875 99.16004733 144.08870578 102.63752894 143.9695549 106.11530685 C143.31323316 125.24900242 142.43987331 144.35158967 141.04352951 163.44684982 C140.98745718 164.25463631 140.93138485 165.06242279 140.87361336 165.89468765 C139.12068627 190.78276339 139.12068627 190.78276339 135.07221603 195.95673752 C128.94536832 200.6144419 119.45272386 199.47100797 112.22321701 199.44684982 C110.94783569 199.44876328 109.67245438 199.45067673 108.35842514 199.45264816 C105.66120662 199.45558556 102.96412112 199.45135449 100.26691818 199.44196701 C96.8693878 199.43069792 93.47217452 199.43727444 90.07465553 199.44881058 C78.15730358 199.48357953 66.23218519 199.51350774 54.35602951 198.41559982 C53.60955658 198.35487289 52.86308365 198.29414597 52.09399033 198.23157883 C47.41264614 197.70832281 44.43888684 196.9021813 41.46149826 193.18122482 C40.4972161 189.48261791 40.24944011 185.78275221 39.98493576 181.97809982 C39.83975006 180.31221817 39.83975006 180.31221817 39.69163132 178.61268234 C39.38490196 175.05362485 39.10915015 171.49304116 38.83649826 167.93122482 C38.4598259 163.27919305 38.07045717 158.62835188 37.67243576 153.97809982 C37.5771962 152.85893173 37.48195663 151.73976364 37.38383102 150.58668137 C36.1306793 131.27805161 36.1306793 131.27805161 27.21149826 114.80622482 C12.30021516 105.99501208 -11.95717405 111.47818638 -28.39006424 112.70075607 C-30.35138606 112.84417225 -32.31273035 112.98728157 -34.27409744 113.13007736 C-39.02916492 113.47692724 -43.78391023 113.8279128 -48.53850174 114.18122482 C-48.53077114 115.07615772 -48.53077114 115.07615772 -48.52288437 115.98917007 C-47.75616165 205.41930005 -47.46942519 294.84954952 -47.41567111 438.57389128 C-47.41451612 450.31550901 -47.41131932 462.05712463 -47.40693016 473.79874156 C-47.40078116 490.37548186 -47.39871227 506.95221608 -47.40294039 523.52895719 C-47.40335867 525.20012335 -47.4037727 526.87128951 -47.40418243 528.54245567 C-47.40438454 529.36254156 -47.40458664 530.18262745 -47.40479486 531.02756443 C-47.40594707 536.65222849 -47.40469303 542.27688862 -47.40234375 547.9015522 C-47.39119215 577.10020271 -47.4079307 606.29468294 -47.98039627 635.48908615 C-48.00911399 637.00970156 -48.00911399 637.00970156 -48.03841186 638.56103647 C-48.30535167 652.21629476 -48.98110462 665.76538472 -50.12834549 679.37653732 C-50.80643214 687.97139359 -50.71712532 696.56759886 -50.53850174 705.18122482 C-43.51954817 706.92315491 -36.6838868 707.78706482 -29.47600174 708.30622482 C-28.32366043 708.38969162 -27.17131912 708.47315842 -25.98405838 708.55915451 C-16.47975579 709.17972993 -6.99707626 709.3977004 2.52399826 709.43122482 C3.19963821 709.43640121 3.87527817 709.44157761 4.57139206 709.44691086 C16.31976706 710.00800067 16.31976706 710.00800067 27.46149826 707.18122482 C30.41407972 702.47560173 30.87796175 698.43737331 30.78522873 693.01646042 C30.78342731 692.21829808 30.7816259 691.42013574 30.7797699 690.59778666 C30.76950249 687.95355725 30.73696704 685.31012061 30.70368576 682.6660881 C30.69050443 680.78156867 30.67830714 678.89704212 30.66703415 677.0125103 C30.62444052 671.06833974 30.54761688 665.12490723 30.46149826 659.18122482 C30.4415052 657.77853993 30.4415052 657.77853993 30.42110825 656.34751797 C30.2270091 643.05609582 29.94934412 629.7667661 29.65378189 616.47726965 C29.53818639 611.23064171 29.42812109 605.98389737 29.31745529 600.73716354 C29.10836661 590.85878519 28.89511162 580.9805022 28.67996788 571.10225403 C28.29385749 553.36889952 27.91457221 535.63539856 27.53763008 517.901847 C27.40575732 511.70598188 27.27186865 505.51016475 27.1362114 499.31438136 C27.05215279 495.46231077 26.96947687 491.61021129 26.88710403 487.75810432 C26.84901308 485.99096307 26.81033972 484.22383425 26.77099991 482.45672035 C26.53174855 471.69576308 26.41251563 460.94507837 26.46149826 450.18122482 C25.30354752 449.72967781 25.30354752 449.72967781 24.12220383 449.26900864 C21.30546814 448.11743459 18.81184304 446.73016544 16.19587326 445.17731857 C14.73794357 444.31396896 14.73794357 444.31396896 13.25056076 443.43317795 C12.24767014 442.83440842 11.24477951 442.23563889 10.21149826 441.61872482 C9.19313889 441.0160881 8.17477951 440.41345139 7.12556076 439.79255295 C-0.39348942 435.32623714 -0.39348942 435.32623714 -1.53850174 434.18122482 C-1.6432277 432.16000067 -1.67706564 430.1350808 -1.68376541 428.11115646 C-1.69014526 426.80791931 -1.69652512 425.50468216 -1.7030983 424.16195297 C-1.70462939 422.72176271 -1.70574205 421.28157196 -1.70647049 419.84138107 C-1.70968623 418.3613545 -1.71305054 416.88132825 -1.71655655 415.40130234 C-1.7225644 412.28146762 -1.72439541 409.16166062 -1.72380447 406.04182053 C-1.72372398 402.87346721 -1.73053589 399.7052608 -1.74431229 396.53693771 C-1.93790597 351.3058979 -1.93790597 351.3058979 5.46149826 333.18122482 C6.46149826 332.18122482 6.46149826 332.18122482 8.72412586 332.05817699 C10.23817084 332.05955968 10.23817084 332.05955968 11.78280258 332.06097031 C12.93691635 332.05959564 14.09103012 332.05822098 15.28011703 332.05680466 C16.55757294 332.06039993 17.83502884 332.06399521 19.15119553 332.06769943 C20.50107954 332.0679813 21.8509637 332.06782357 23.20084763 332.06725693 C26.87630434 332.06696895 30.55172869 332.07286566 34.22717786 332.07983088 C38.06422975 332.08606444 41.9012823 332.08666822 45.73833847 332.08785629 C53.00921044 332.0909696 60.28006745 332.09918299 67.55093282 332.10920578 C75.82649178 332.12036692 84.10205144 332.12587737 92.37761605 332.13090122 C109.40558545 332.1413656 126.43354028 332.15896504 143.46149826 332.18122482 C147.70877232 346.74683647 147.97501018 361.6732304 148.52399826 376.74372482 C148.60784796 378.93016892 148.69175204 381.11661094 148.77570724 383.30305099 C149.43343645 400.8260991 149.91595834 418.35108366 150.22590256 435.8836174 C150.24433307 436.92125764 150.26276358 437.95889788 150.28175259 439.02798176 C150.32132174 441.26048635 150.3607651 443.49299317 150.40009308 445.72550201 C150.46151945 449.18241755 150.52482091 452.63929504 150.58835983 456.09617233 C151.43821742 502.87519964 151.61999263 549.64409442 151.59006709 596.430062 C151.58570215 604.05989531 151.58885062 611.68971225 151.59369576 619.31954455 C151.59828161 626.85681185 151.59885316 634.39407221 151.59625709 641.93134046 C151.59473308 646.35683024 151.59439062 650.78230902 151.59779358 655.207798 C151.61630602 683.07237369 151.43484018 710.95496103 149.26911545 738.75129318 C149.08199632 741.1770876 148.91204149 743.60373675 148.74274826 746.0308342 C148.16752145 753.88413932 147.36527365 761.65338941 146.04743576 769.41950607 C145.93590164 770.09617828 145.82436752 770.77285049 145.70945358 771.47002792 C143.31219882 784.63704378 135.41401476 794.6952008 126.46149826 804.18122482 C125.78087326 804.90438889 125.10024826 805.62755295 124.39899826 806.37263107 C109.33405515 820.90402412 83.60290596 820.34447318 64.08845139 820.31061935 C62.81950027 820.31237167 61.55054916 820.31412399 60.24314499 820.31592941 C56.79524952 820.32044357 53.34738437 820.31873625 49.89948845 820.31555033 C46.23863912 820.31298215 42.57779205 820.31537768 38.9169426 820.31693649 C32.74721956 820.31875087 26.57750853 820.3163769 20.40778732 820.31159592 C14.15322205 820.30680359 7.89868066 820.3067368 1.64411545 820.31159592 C-58.27603659 820.35692265 -58.27603659 820.35692265 -80.51115799 819.72809982 C-81.21945755 819.70815083 -81.92775711 819.68820183 -82.65752029 819.66764832 C-138.32862685 818.02702367 -138.32862685 818.02702367 -153.32365799 802.31013107 C-155.16350174 800.11872482 -155.16350174 800.11872482 -157.01754856 797.53434563 C-158.85240478 795.00141958 -160.85816128 792.73312384 -162.97292995 790.43062782 C-176.96889659 773.99336345 -175.46508754 756.06112316 -175.14876139 735.66569829 C-175.08559814 730.58054945 -175.10471443 725.49557923 -175.11331558 720.41013718 C-175.11723153 711.60140796 -175.07026 702.79415571 -174.98815727 693.98582458 C-174.86880823 681.15638325 -174.82987694 668.32762877 -174.80938002 655.49769388 C-174.77389182 634.55147232 -174.67679966 613.60601461 -174.53972244 592.66022873 C-174.40821578 572.54244243 -174.30134948 552.42481538 -174.23210526 532.3067131 C-174.22786172 531.07701228 -174.22361819 529.84731145 -174.21924607 528.58034696 C-174.18972122 519.93819539 -174.16183784 511.29603886 -174.13420486 502.65388107 C-174.10279819 492.90248512 -174.07076267 483.15109145 -174.03793716 473.39970016 C-174.03396772 472.2089723 -174.02999828 471.01824444 -174.02590855 469.79143392 C-173.97151755 453.64824551 -173.89658143 437.50528763 -173.80327007 421.36227906 C-173.56107344 379.18452435 -173.46268498 337.02026495 -173.97941971 294.84406662 C-173.99056691 293.93275951 -174.00171411 293.02145241 -174.01319911 292.08252993 C-174.26206924 271.9709516 -174.58085901 251.86234526 -175.08928299 231.75544357 C-175.13391681 229.9612187 -175.17840434 228.16699018 -175.22274017 226.37275791 C-175.24223355 225.58865852 -175.26172692 224.80455913 -175.281811 223.99669915 C-175.77594708 203.40849308 -175.7256295 182.81050675 -175.72380447 162.21760178 C-175.72370166 156.14893759 -175.73753891 150.08038725 -175.75457668 144.01175022 C-175.76580877 139.21976853 -175.76772055 134.42781388 -175.76719475 129.63582039 C-175.7683509 127.39931649 -175.77263376 125.1628113 -175.78052711 122.92632103 C-175.84674354 102.30253217 -174.93365321 81.63487593 -171.66350174 61.24372482 C-171.51525955 60.21311935 -171.36701736 59.18251389 -171.21428299 58.12067795 C-169.56158581 47.48563878 -166.65527769 38.36866618 -159.53850174 30.18122482 C-158.83209549 29.36653732 -158.12568924 28.55184982 -157.39787674 27.71247482 C-155.14521296 25.16865042 -152.8539709 22.66790826 -150.53850174 20.18122482 C-149.95068924 19.5392717 -149.36287674 18.89731857 -148.75725174 18.23591232 C-132.26356375 0.88641976 -111.87559565 1.89565627 -89.53850174 1.18122482 C-88.49795639 1.14675247 -88.49795639 1.14675247 -87.43638992 1.11158371 C-58.29877973 0.15355643 -29.15059574 0.04870575 0 0 Z " fill="#FCFCFC" transform="translate(1105.538501739502,545.818775177002)"/>
<path d="M0 0 C6.01017522 0.00009216 12.02024101 -0.01006404 18.03038818 -0.02574366 C23.94105816 -0.04058632 29.85169393 -0.04398339 35.7623806 -0.04339027 C38.22299759 -0.04455075 40.68361565 -0.04886 43.14422035 -0.05672264 C114.48229322 -0.26386123 114.48229322 -0.26386123 136.99655724 18.7964344 C138.18224621 19.78385246 139.38690627 20.74868182 140.6037693 21.69741631 C154.5276358 32.71316889 154.5276358 32.71316889 155.89926147 41.28909302 C156.28959497 47.12486676 155.76694428 52.87786114 155.23852539 58.68920898 C155.10346794 60.85933628 154.97584841 63.02993761 154.85517883 65.20091248 C154.51795019 70.90559014 154.08013026 76.59810313 153.61999512 82.29400635 C153.18061586 87.95243918 152.83778971 93.61654155 152.48657227 99.28100586 C151.85969911 109.16259643 151.14664879 119.03517786 150.37850761 128.90673256 C149.91252898 134.8999047 149.46731314 140.89373406 149.05354977 146.89074421 C148.80711237 150.4614422 148.55280043 154.03155468 148.29718971 157.60160637 C148.18252903 159.22257944 148.07071626 160.84375724 147.96216393 162.46515083 C146.21117106 188.41836551 146.21117106 188.41836551 140.66430664 196.18530273 C138.16821289 197.29467773 138.16821289 197.29467773 135.22680664 197.93530273 C134.2793457 198.15702148 133.33188477 198.37874023 132.35571289 198.60717773 C121.73710201 200.27019827 111.07395359 200.38760469 100.35180664 200.37280273 C99.6101828 200.37253082 98.86855896 200.37225891 98.10446167 200.37197876 C88.6205092 200.35605818 79.18330733 200.16451349 69.72680664 199.37280273 C68.85435303 199.30279053 67.98189941 199.23277832 67.08300781 199.16064453 C50.91780043 197.58266857 50.91780043 197.58266857 46.83642578 193.24072266 C45.66430664 191.18530273 45.66430664 191.18530273 45.85180664 188.62280273 C46.66430664 186.18530273 46.66430664 186.18530273 48.66430664 183.18530273 C48.89675928 176.61021388 47.47512636 170.04896266 46.22680664 163.62280273 C44.51100674 154.77386724 43.95347343 145.88243144 43.48681641 136.89013672 C42.78739915 123.60643108 42.78739915 123.60643108 36.66430664 112.18530273 C16.12174176 104.37912808 -10.8721478 110.08145719 -32.00756836 112.81811523 C-34.83127967 113.12965146 -37.5022546 113.21367334 -40.33569336 113.18530273 C-40.33477157 114.30073267 -40.33384977 115.41616261 -40.33290005 116.56539345 C-40.2670456 197.26051878 -40.21670958 277.95594499 -40.74141312 496.21446991 C-40.76793875 502.56118404 -40.79320199 508.90790245 -40.8180331 515.25462341 C-41.18289781 608.39449852 -41.18289781 608.39449852 -41.80444336 643.39233398 C-41.82286726 644.45704107 -41.84129116 645.52174816 -41.86027336 646.6187191 C-42.21198996 666.16335681 -43.1199195 685.67629099 -44.33569336 705.18530273 C-43.45107422 705.25261597 -43.45107422 705.25261597 -42.54858398 705.32128906 C-32.01552756 706.12897091 -21.48665832 706.95977135 -10.97241211 707.98608398 C-10.26976227 708.05420792 -9.56711243 708.12233185 -8.84317017 708.19252014 C-5.39585991 708.52741741 -1.94936224 708.86865623 1.49633789 709.21972656 C17.10356667 711.40162571 17.10356667 711.40162571 31.66430664 707.18530273 C36.32374885 702.77410949 40.28645763 698.31482085 40.89244938 691.69192696 C40.7777602 685.01730633 40.34221658 678.4209551 39.73046875 671.7746582 C38.53490509 657.7798652 38.02196252 643.79217457 37.60571289 629.75561523 C37.54322352 627.74291231 37.4807335 625.73020941 37.41819698 623.71750796 C36.49870174 593.89152013 36.06098777 564.05811407 35.65814209 534.22149658 C35.51625385 523.71848115 35.36915369 513.21554153 35.21512038 502.71269715 C35.14947112 498.216546 35.08963112 493.72034092 35.03123474 489.22409058 C34.95521713 483.57407508 34.84928618 477.92531447 34.72344589 472.27620125 C34.66570226 469.25824425 34.64301387 466.24141088 34.62246704 463.2230072 C34.58618523 461.41588759 34.54823767 459.60880034 34.50830078 457.80175781 C34.51453539 456.59722238 34.51453539 456.59722238 34.52089596 455.36835289 C34.38959508 451.22895818 33.93594703 448.95635451 30.85643005 446.06144714 C27.57703557 443.66866521 27.57703557 443.66866521 24.02758789 441.78881836 C23.07746826 441.34662964 23.07746826 441.34662964 22.1081543 440.89550781 C21.46668457 440.59926514 20.82521484 440.30302246 20.16430664 439.99780273 C18.87290486 439.33361154 17.58508041 438.66241635 16.30102539 437.98413086 C13.9634369 436.75957674 11.62110268 435.59373779 9.24047852 434.45019531 C6.66430664 433.18530273 6.66430664 433.18530273 5.66430664 432.18530273 C5.56578935 430.67528433 5.53631987 429.16068903 5.53491211 427.64746094 C5.53175995 426.67746658 5.52860779 425.70747223 5.52536011 424.70808411 C5.52839645 423.11319405 5.52839645 423.11319405 5.53149414 421.48608398 C5.53053741 420.38548141 5.52958069 419.28487885 5.52859497 418.15092468 C5.52791176 415.80113671 5.52977579 413.45134689 5.53393555 411.1015625 C5.53917547 407.58580987 5.53405203 404.0701914 5.52758789 400.55444336 C5.52365067 389.70995743 5.6209893 378.88022298 6.08618164 368.04467773 C6.12178192 367.17672073 6.1573822 366.30876373 6.19406128 365.414505 C7.19507313 344.90330738 7.19507313 344.90330738 12.66430664 337.18530273 C18.79451211 332.58764864 26.19178829 331.80161559 33.60180664 331.16186523 C34.52944824 331.08014069 35.45708984 330.99841614 36.4128418 330.91421509 C52.23283003 329.63103757 68.11945707 329.22127645 83.97753906 328.6572876 C87.55429904 328.52817648 91.13075927 328.39162159 94.70724487 328.25515366 C112.69550933 327.57150613 130.65944815 326.92978654 148.66430664 327.18530273 C153.15124512 341.80914057 154.68270555 356.10688903 155.28752136 371.33709717 C155.31941124 372.13712874 155.35130112 372.93716032 155.38415736 373.76143527 C156.89187278 412.40036417 156.82848851 451.05734016 156.83156371 489.71852398 C156.83206528 494.7223462 156.83437238 499.72616663 156.83706093 504.7299881 C156.84581175 521.36286224 156.85048782 537.99573006 156.84973045 554.62860653 C156.84967052 555.95991334 156.84967052 555.95991334 156.84960938 557.31811523 C156.84956849 558.2067764 156.84952761 559.09543756 156.84948549 560.01102784 C156.84907808 574.44651592 156.85868623 588.88197804 156.87274774 603.3174586 C156.88718821 618.26338544 156.8940141 633.20929965 156.89315397 648.15523362 C156.89282518 656.49737802 156.89543165 664.83949501 156.90633202 673.181633 C156.91553802 680.26980855 156.91753012 687.3579442 156.91082259 694.44612321 C156.90761062 698.04311376 156.90730167 701.64002819 156.91617584 705.23701096 C156.94963335 719.80999473 156.69805996 734.33293295 155.83662415 748.87969971 C155.76747179 750.13794422 155.69831944 751.39618873 155.62707156 752.69256186 C154.90961851 763.51630406 153.03778102 773.61607186 147.91430664 783.24780273 C147.56360107 783.92190186 147.21289551 784.59600098 146.8515625 785.29052734 C145.80906788 787.26705573 144.74268028 789.22815951 143.66430664 791.18530273 C143.08293945 792.24749023 142.50157227 793.30967773 141.90258789 794.40405273 C135.96473837 804.48040343 128.02549882 810.38334043 116.75805664 813.66967773 C92.74087115 819.58435774 67.10491804 818.34857861 42.55674529 818.3525598 C40.05677752 818.35327882 37.55681498 818.35542909 35.05684853 818.35805702 C26.26738776 818.36727521 17.477942 818.37139724 8.68847656 818.37060547 C0.60904737 818.37000887 -7.47031416 818.38048713 -15.54972631 818.39634913 C-22.57226861 818.40962425 -29.5947894 818.41478105 -36.61734408 818.41415006 C-40.77268437 818.41390039 -44.92796469 818.41644341 -49.08329201 818.42732811 C-66.57053524 818.46982203 -84.00131637 818.20911235 -101.46728516 817.29589844 C-102.24333276 817.25701456 -103.01938037 817.21813069 -103.81894457 817.17806852 C-128.45997777 815.91260031 -128.45997777 815.91260031 -134.02319336 811.06030273 C-135.11760742 810.1109082 -135.11760742 810.1109082 -136.23413086 809.14233398 C-136.92764648 808.49651367 -137.62116211 807.85069336 -138.33569336 807.18530273 C-139.2831543 806.35579102 -139.2831543 806.35579102 -140.24975586 805.50952148 C-146.68950311 799.53354204 -151.74140373 792.28646859 -156.84838867 785.17749023 C-157.85202609 783.83315646 -158.9059706 782.52515755 -160.00268555 781.25561523 C-167.97149067 771.78998625 -165.50418254 757.92996744 -165.54101562 746.18261719 C-165.55062774 744.22204051 -165.56063132 742.26146571 -165.57098866 740.30089283 C-165.59827406 734.87562599 -165.61925708 729.45035056 -165.63897848 724.02505159 C-165.6568659 719.2857456 -165.67805466 714.54645626 -165.69911575 709.80716348 C-165.7668749 694.49493777 -165.82276996 679.18268145 -165.8758786 663.87039985 C-165.89306542 658.92753546 -165.91089208 653.98467369 -165.92908096 649.0418129 C-166.27218498 555.69714099 -166.42840238 462.35205887 -166.51313592 306.55716685 C-166.51878909 290.43579304 -166.52847403 274.3144267 -166.54125565 258.19305703 C-166.55791547 237.16817542 -166.56754059 216.14330907 -166.56544352 195.11842036 C-166.56456685 184.84430667 -166.56663579 174.57021683 -166.57756424 164.29610825 C-166.58670805 155.67741309 -166.588826 147.05875066 -166.58215288 138.44005265 C-166.5789771 134.09341442 -166.57868916 129.74683891 -166.58757222 125.40020716 C-166.62042048 108.13469486 -166.38601596 90.9157139 -165.50801086 73.67012024 C-165.47341631 72.92642046 -165.43882176 72.18272069 -165.40317889 71.41648456 C-164.42310095 50.96328873 -159.28375524 32.92607254 -144.33569336 18.18530273 C-131.10952916 7.17783188 -116.50149233 2.62611208 -99.49462891 1.67285156 C-98.74834323 1.63035939 -98.00205755 1.58786722 -97.23315716 1.54408741 C-89.50679366 1.11839095 -81.7778188 0.83769905 -74.04272461 0.63452148 C-73.26315714 0.61370703 -72.48358967 0.59289257 -71.68039894 0.57144737 C-47.79224542 -0.04429862 -23.89442773 -0.0019186 0 0 Z " fill="#FCFCFC" transform="translate(1922.335693359375,537.814697265625)"/>
</svg>
